<?xml version="1.0" encoding="UTF-8"?>
<svg version="1.1" xmlns="http://www.w3.org/2000/svg" width="932" height="324">
<path d="M0 0 C5.25245444 5.7159063 7.78405042 11.88015543 8.375 19.5625 C8.029472 24.74541995 7.20472417 29.8443216 3.765625 33.92578125 C-0.62066449 37.75813212 -4.40787025 39.57658867 -10.1875 39.25 C-17.63394761 38.18798591 -22.90698669 33.56393001 -28.234375 28.546875 C-32.81126086 25.10331326 -39.45128036 25.90137256 -44.875 26.3125 C-51.75351696 28.42896676 -56.07050521 34.01634997 -59.4296875 40.15234375 C-62.40353044 46.67967699 -63.58660189 52.16485436 -62.875 59.3125 C-53.6407482 60.51045699 -48.12404746 58.32746312 -40.6875 53.16015625 C-34.95023683 49.39109308 -28.5689155 49.69460011 -21.875 50.3125 C-16.51210858 51.90406778 -12.89624225 54.54823337 -9.875 59.3125 C-6.96007205 65.56328413 -6.77638483 72.19012006 -9.0625 78.6875 C-12.50486747 83.67299772 -16.08861009 87.3135653 -21.875 89.3125 C-30.15546529 90.4473228 -36.2890339 88.63734904 -43.8828125 85.44140625 C-47.95586526 83.90470619 -50.58749147 83.59791525 -54.875 84.3125 C-59.23787079 87.65736761 -59.55886856 95.0225082 -60.26855469 100.16333008 C-60.63352114 103.27388561 -60.97558859 106.38628649 -61.3125 109.5 C-63.7055872 130.21846177 -67.07614995 148.43501092 -83.56640625 162.6171875 C-86.89818091 165.06387143 -89.90669866 166.16909114 -93.875 167.3125 C-94.46539062 167.49296875 -95.05578125 167.6734375 -95.6640625 167.859375 C-105.04069414 169.78108749 -115.50258765 169.06578738 -123.875 164.3125 C-129.76610611 160.01038664 -134.45281427 155.3344833 -137.83984375 148.84375 C-138.87792955 146.97327996 -138.87792955 146.97327996 -141.875 146.3125 C-145.55155647 147.53801882 -146.2346155 148.85172935 -148.5 151.9375 C-155.68617318 161.13738105 -163.50266518 166.64306906 -175.125 168.125 C-184.69070816 168.74856211 -193.31542018 167.43215985 -200.875 161.3125 C-201.49117188 160.83039063 -202.10734375 160.34828125 -202.7421875 159.8515625 C-210.98908408 152.59570928 -213.54974119 141.83328288 -214.875 131.3125 C-215.07995619 126.72271698 -215.0786789 122.14494451 -215.02532959 117.55253792 C-214.99936741 115.29259107 -214.98666272 113.0328842 -214.97705078 110.77281189 C-214.95057412 105.16329446 -214.90214441 99.55400906 -214.85424805 93.94464111 C-214.81448474 89.1882544 -214.7833351 84.4319548 -214.76312256 79.67544365 C-214.75035229 77.4709707 -214.72534633 75.26687008 -214.69970703 73.06251526 C-214.61381729 61.49019515 -214.6995241 48.99850221 -221.875 39.3125 C-227.33162661 34.18844432 -234.61119144 33.37028955 -241.75878906 32.47485352 C-246.69969927 31.79856785 -249.88760828 30.51189306 -253.875 27.3125 C-257.20118329 22.84841189 -258.65937065 19.26151651 -258.390625 13.65625 C-257.12141594 7.88711792 -253.68499209 3.49453565 -248.8125 0.3125 C-238.06411913 -3.34652327 -228.29952657 -1.93266865 -217.875 2.3125 C-202.29222344 10.16491743 -193.49818018 24.21922339 -187.875 40.3125 C-182.35431685 58.68930688 -181.48991356 77.22059443 -180.77050781 96.26635742 C-181.16103768 117.25078236 -181.16103768 117.25078236 -172.875 135.3125 C-168.98023226 136.28619193 -166.57721752 136.55125396 -162.75 135.25 C-153.97250282 129.33473016 -152.22046778 120.70347195 -150.125 110.75 C-150.0425 109.615625 -149.96 108.48125 -149.875 107.3125 C-149.81183594 106.44496094 -149.74867188 105.57742187 -149.68359375 104.68359375 C-149.30836407 95.39968521 -151.1754244 86.439415 -156.0625 78.4375 C-158.50017974 74.2346039 -159.4141792 70.87581096 -158.3984375 66.046875 C-156.54847247 59.90743063 -154.07737468 55.42491238 -148.5 52 C-142.59075977 49.29989772 -136.20967757 49.44968594 -129.875 50.3125 C-125.28012016 52.0765434 -121.21383523 54.89470012 -118.875 59.3125 C-114.61772869 72.10005246 -117.06888764 86.61112276 -118.375 99.8125 C-118.59191344 102.04763043 -118.80654558 104.28292558 -119.01696777 106.51867676 C-119.20638666 108.52527938 -119.40275585 110.53122247 -119.59960938 112.53710938 C-120.06271058 118.88586564 -120.06542747 124.61426594 -118.375 130.8125 C-117.95734375 132.37484375 -117.95734375 132.37484375 -117.53125 133.96875 C-117.3146875 134.7421875 -117.098125 135.515625 -116.875 136.3125 C-110.07872323 136.96977254 -110.07872323 136.96977254 -104 134.375 C-94.84936295 121.18731719 -95.31409122 104.71002461 -94.27319336 89.24658203 C-93.66256753 80.29493323 -92.87883159 71.43930236 -91.4140625 62.58203125 C-91.29547379 61.86280487 -91.17688507 61.14357849 -91.05470276 60.40255737 C-87.04913539 37.52868156 -75.19823709 16.78410829 -56.0625 3.3359375 C-39.24607041 -7.17433099 -17.57265334 -10.31438348 0 0 Z " fill="#FED513" transform="translate(540.875,67.6875)"/>
<path d="M0 0 C0.87785156 0.70769531 0.87785156 0.70769531 1.7734375 1.4296875 C2.39992188 1.92210938 3.02640625 2.41453125 3.671875 2.921875 C10.84701065 9.24931529 12.81323268 17.52615807 13.63037109 26.7512207 C13.86495353 31.14303625 13.65895714 35.48068804 13.3984375 39.8671875 C13.35460937 40.73150391 13.31078125 41.59582031 13.265625 42.48632812 C13.02746156 46.93535356 12.69229165 51.35963599 12.25 55.79296875 C11.67628477 61.92326241 11.55313285 68.025326 11.5234375 74.1796875 C11.5028125 75.26378906 11.4821875 76.34789062 11.4609375 77.46484375 C11.43063619 83.66903618 11.96117173 87.90715523 14.7734375 93.4296875 C15.29425315 98.46423878 14.91445383 101.4221839 11.7734375 105.4296875 C5.80674365 110.78441275 0.69382009 112.310584 -7.2265625 112.4296875 C-11.45521443 112.03393845 -14.571185 110.91029767 -18.0390625 108.3671875 C-20.82576749 104.62504079 -22.02863465 100.90000364 -23.2265625 96.4296875 C-23.89300781 96.87699219 -24.55945313 97.32429688 -25.24609375 97.78515625 C-40.1065745 107.53280027 -53.46585271 112.01017335 -71.2265625 110.4296875 C-77.98863637 108.98360609 -83.62736824 105.60538243 -88.2265625 100.4296875 C-93.31394351 91.95071915 -93.49544222 81.87107052 -91.61328125 72.31640625 C-87.69399132 60.10963101 -77.76542893 52.28086136 -66.7265625 46.4921875 C-64.2265625 45.4296875 -64.2265625 45.4296875 -62.2265625 45.4296875 C-61.8965625 44.7696875 -61.5665625 44.1096875 -61.2265625 43.4296875 C-58.93218159 42.7566691 -56.68214141 42.19569301 -54.3515625 41.6796875 C-47.84163275 40.15189256 -41.47016157 38.34253967 -35.1015625 36.3046875 C-34.3089502 36.05106445 -33.51633789 35.79744141 -32.69970703 35.53613281 C-31.21178411 35.05652555 -29.7254976 34.57179989 -28.24121094 34.08105469 C-26.41848751 33.49173984 -24.57706848 32.96103931 -22.734375 32.4375 C-21.90679687 32.10492188 -21.07921875 31.77234375 -20.2265625 31.4296875 C-19.36549581 28.84648744 -19.01002631 27.09647126 -18.9140625 24.4296875 C-18.87667969 23.7490625 -18.83929688 23.0684375 -18.80078125 22.3671875 C-19.08271918 20.27830801 -19.08271918 20.27830801 -20.88671875 18.70703125 C-25.82662804 16.01028611 -32.23701191 16.58273219 -37.54296875 18.0859375 C-42.06712982 20.13995975 -45.13017898 23.16877698 -48.50390625 26.75 C-52.23382113 30.38687846 -56.94789759 33.16575425 -62.2265625 33.4296875 C-65.74720268 32.76197988 -68.32624095 32.17995546 -71.1015625 29.8671875 C-73.78211205 24.05933013 -73.67569102 18.87362084 -71.7890625 12.8046875 C-68.72036723 5.26476612 -62.84930021 0.54887048 -55.5078125 -2.7265625 C-39.38594384 -8.68944543 -14.70331185 -10.4846401 0 0 Z M-51.2265625 63.4296875 C-54.46236466 67.27220257 -55.2265625 71.49099029 -55.2265625 76.4296875 C-54.70114583 79.29038052 -54.70114583 79.29038052 -53.2265625 81.4296875 C-48.96279033 84.02264531 -45.08586975 84.05034668 -40.2265625 83.4296875 C-33.05141753 81.36443806 -26.96154319 78.52077289 -22.9765625 71.9921875 C-20.47725221 66.90430583 -20.10217391 62.74904937 -20.1640625 57.1171875 C-20.17308594 56.04855469 -20.18210937 54.97992188 -20.19140625 53.87890625 C-20.20300781 53.07066406 -20.21460938 52.26242188 -20.2265625 51.4296875 C-30.50027047 51.4296875 -43.64227959 56.52628784 -51.2265625 63.4296875 Z " fill="#FED513" transform="translate(292.2265625,124.5703125)"/>
<path d="M0 0 C6.45814419 5.97443704 9.27387109 13.63032068 9.9609375 22.23828125 C10.37718688 38.16782492 6.29477635 52.0575868 -4.421875 64.203125 C-18.64725199 78.23755734 -37.1956986 81.90754324 -56.3125 83.8125 C-56.58487185 85.1455199 -56.85521996 86.47895315 -57.125 87.8125 C-57.31191406 88.71613281 -57.49882812 89.61976563 -57.69140625 90.55078125 C-58.1516599 92.96783657 -58.54937447 95.36043664 -58.90234375 97.79296875 C-60.88384036 110.81162922 -60.88384036 110.81162922 -65.6171875 115.6484375 C-71.95080871 119.99732948 -80.59954904 120.56738825 -88.01953125 119.37890625 C-91.60348484 118.32689997 -93.95428506 117.1169827 -96.8125 114.6875 C-100.89412282 106.8643896 -98.87957842 98.79784499 -97.109375 90.60546875 C-96.87091858 89.44485428 -96.63246216 88.28423981 -96.38677979 87.0884552 C-95.62482138 83.38950954 -94.84478116 79.69469604 -94.0625 76 C-87.32239113 45.18437663 -87.32239113 45.18437663 -84.87304688 13.828125 C-84.72436117 7.16290375 -83.00404966 3.42714824 -78.125 -1.3125 C-57.80119157 -14.86170562 -19.33118756 -15.20672269 0 0 Z M-45.3125 13.8125 C-49.07663565 18.44365566 -50.53595416 23.07497282 -51.9375 28.75 C-52.14914795 29.58176758 -52.3607959 30.41353516 -52.57885742 31.27050781 C-54.96432842 40.9681474 -56.64903852 50.79113076 -56.3125 60.8125 C-55.14774938 62.19021762 -55.14774938 62.19021762 -51.9375 62.125 C-45.30467083 62.0413427 -39.1794677 59.46897023 -33.5 56.1875 C-26.38946632 48.467492 -23.42696174 40.05441167 -23.0625 29.6875 C-23.4967077 22.95728065 -24.37510008 17.74989992 -29.3125 12.8125 C-32.08302181 11.88899273 -33.87938758 11.64920415 -36.75 11.625 C-37.89275391 11.60373047 -37.89275391 11.60373047 -39.05859375 11.58203125 C-41.73047512 11.85523922 -43.09608599 12.27467 -45.3125 13.8125 Z " fill="#FED513" transform="translate(197.3125,117.1875)"/>
<path d="M0 0 C2.41813647 3.59716574 2.11719752 6.26844431 1.55859375 10.40625 C0.54540858 15.11083007 -1.2091352 19.54366202 -3 24 C-1.44539062 24.07347656 -1.44539062 24.07347656 0.140625 24.1484375 C1.51044208 24.22349597 2.88023248 24.29904247 4.25 24.375 C4.93191406 24.4059375 5.61382813 24.436875 6.31640625 24.46875 C12.98415467 24.85716253 12.98415467 24.85716253 16 27 C18.33299736 30.96609551 19.13706277 33.1014774 18.4375 37.6875 C16.93348806 41.15326663 16.06527571 42.82204094 13 45 C6.58833559 46.92628096 0.66322305 47.34429932 -5.99609375 47.390625 C-9.18583449 47.49370459 -11.53082687 47.70717125 -14.265625 49.4140625 C-19.32897525 56.96347211 -21.35845158 66.19815294 -23.6875 74.875 C-23.99494141 75.96941406 -24.30238281 77.06382812 -24.61914062 78.19140625 C-28.5132647 91.68865328 -28.5132647 91.68865328 -26 105 C-24.77025539 106.45003806 -24.77025539 106.45003806 -21.0625 106.25 C-16.03425771 105.69753389 -14.04407512 103.30818934 -10.8125 99.5625 C-10.03519531 98.57378906 -9.25789062 97.58507812 -8.45703125 96.56640625 C-5.69825014 93.68481772 -3.87179679 92.81401658 0 92 C3.77708298 92.81466496 6.78082985 93.729644 9 97 C10.83723931 102.51171792 9.36232863 106.92056077 7 112 C0.94726074 122.26838513 -9.00214397 130.25013182 -20.2265625 134.109375 C-30.79258828 136.60321959 -43.40448131 136.42050325 -53 131 C-56 128.5 -56 128.5 -58 126 C-58.50144531 125.37351563 -59.00289062 124.74703125 -59.51953125 124.1015625 C-65.89442051 115.0522474 -65.15959592 102.02251058 -63.64111328 91.51708984 C-61.1375985 77.56971268 -56.10035791 64.43764926 -50.86035156 51.32397461 C-50.08407521 49.22710327 -49.49125459 47.17892142 -49 45 C-50.19496094 45.03480469 -51.38992188 45.06960937 -52.62109375 45.10546875 C-70.72638435 45.47834224 -70.72638435 45.47834224 -78.9375 40.0625 C-82.84091409 36.15908591 -83.72884619 32.51346086 -84 27 C-83.15730597 22.10906991 -81.95901461 18.87183146 -78.25 15.5 C-72.71181051 12.94391254 -68.11610264 12.45758051 -62.1875 14.125 C-58.60969736 15.55612106 -55.43415707 17.58309224 -52.19921875 19.66015625 C-47.23210054 22.68630464 -41.64268015 23.11521997 -36 22 C-33.48811102 19.78508312 -32.40721321 16.99736413 -31 14 C-29.86164144 12.06638628 -28.69357409 10.15002713 -27.5 8.25 C-26.9534375 7.34765625 -26.406875 6.4453125 -25.84375 5.515625 C-19.7398526 -2.81257399 -8.99542597 -5.84512911 0 0 Z " fill="#FED513" transform="translate(815,101)"/>
<path d="M0 0 C4.54394501 4.09170404 6.77584728 8.57341652 7.3359375 14.63671875 C7.51863173 22.84180945 7.12155615 29.6818574 3 37 C2.49146484 37.94746094 2.49146484 37.94746094 1.97265625 38.9140625 C-3.82083687 48.27436812 -14.80403971 53.10955643 -25 56 C-34.85990002 58.1842225 -44.88742582 59.61357192 -55 59 C-54.56450493 67.80527478 -54.56450493 67.80527478 -50.5625 75.25 C-45.62180153 78.62413554 -40.79096791 78.57662554 -35 78 C-29.1977784 76.51133109 -24.61110307 73.84067109 -19.8125 70.3125 C-15.86714891 67.43696982 -13.04648998 65.80209843 -8 66 C-5.05244268 67.34562399 -3.45722728 68.08554544 -2 71 C-1.00653046 76.87050183 -1.6014255 81.14785421 -4.9375 86.125 C-14.4018048 98.20145292 -26.73635312 105.69495688 -42 108 C-54.72889569 108.94122116 -66.23493003 107.13551633 -76.45703125 99.05859375 C-84.09088543 91.98177039 -88.24308386 83.20209261 -90 73 C-90.1340625 72.28972656 -90.268125 71.57945312 -90.40625 70.84765625 C-92.86654025 54.04499218 -87.36287234 36.35191525 -77.90625 22.51953125 C-65.94334426 6.70790378 -51.99331564 -3.43465797 -32.17041016 -6.36254883 C-20.92415431 -7.71628565 -9.50944995 -6.68231618 0 0 Z M-43.75 18.75 C-49.34366211 25.6560703 -51.63978752 32.26600408 -53 41 C-43.06123306 41.57095044 -34.23681063 39.76576744 -26 34 C-22.4239907 29.38883011 -20.85357514 25.8002076 -20.75 20 C-20.71132813 18.700625 -20.71132813 18.700625 -20.671875 17.375 C-20.81341584 14.96334283 -20.81341584 14.96334283 -22.28515625 13.24609375 C-30.03612918 7.6138378 -38.24784919 12.80204593 -43.75 18.75 Z " fill="#FED513" transform="translate(615,128)"/>
<path d="M0 0 C4.66128688 4.40880051 7.71832284 8.49618684 8.49609375 15.0546875 C8.49738281 16.323125 8.49867188 17.5915625 8.5 18.8984375 C8.51933594 20.166875 8.53867187 21.4353125 8.55859375 22.7421875 C7.83037343 28.10922861 5.45573215 31.14113044 1.5 34.7109375 C-2.63549715 37.57397399 -5.9961753 37.73921851 -10.9375 37.3984375 C-16.14959158 35.19649375 -17.7402321 31.68699909 -20.0625 26.8359375 C-22.58307529 21.40471797 -22.58307529 21.40471797 -26.9375 17.3984375 C-31.72148883 16.69030834 -35.80642679 16.90759441 -40.25 18.8359375 C-48.38290237 26.59056534 -51.75331627 38.6296786 -52.140625 49.60546875 C-52.27559962 57.79128262 -52.28111873 64.77498681 -48.9375 72.3984375 C-48.6075 73.3884375 -48.2775 74.3784375 -47.9375 75.3984375 C-43.58765674 77.98115693 -38.83890824 78.02704098 -33.9375 77.3984375 C-27.7732779 75.15690219 -24.40711093 70.71477412 -20.48852539 65.63964844 C-18.22963807 62.74602871 -16.46448324 60.58826317 -12.9375 59.3984375 C-6.01985294 58.73961397 -6.01985294 58.73961397 -2.0625 61.1484375 C1.01030064 64.40199112 1.96689144 66.09338064 2.296875 70.59765625 C1.77938915 78.98955183 -3.64294562 88.31105189 -9.9296875 93.87890625 C-23.68052987 104.28567217 -36.83330166 107.75080842 -53.9375 106.3984375 C-64.32341516 104.6375426 -73.3995288 100.03350064 -80.0703125 91.75 C-89.47487465 77.70218122 -91.13255416 60.4897699 -88.2890625 44.0234375 C-84.51606406 26.08983694 -74.96548731 11.64962229 -60.25390625 0.859375 C-43.11472276 -9.95016063 -16.72016773 -13.82110639 0 0 Z " fill="#FED512" transform="translate(714.9375,129.6015625)"/>
<path d="M0 0 C3.48969743 2.88279353 5.79475067 5.041335 6.2734375 9.609375 C6.58169601 19.1416765 6.58169601 19.1416765 3.9375 22.6875 C0.4179691 25.45819454 -1.53446105 26.07974177 -6 26 C-9.06298206 24.74696188 -10.63979139 23.40989255 -12.8125 20.9375 C-14.56641131 16.59887729 -14.67922905 12.6143278 -14 8 C-10.6396464 1.51104132 -7.38281638 -0.89102956 0 0 Z " fill="#FDD413" transform="translate(413,63)"/>
<path d="M0 0 C3.37970752 2.19224272 4.35508996 4.54717173 5.375 8.3125 C6.18472675 12.70815953 5.79557042 15.83754131 4 20 C1.84559768 22.92383172 0.52752617 23.83164058 -2.9375 24.9375 C-6.66175388 25.01350518 -8.09130777 24.2797858 -11 22 C-13.98876712 18.9044912 -14.83813785 16.28934691 -15 12 C-14.10763113 7.41864195 -12.80203016 3.93570185 -9.75 0.375 C-6.00504217 -1.49747891 -3.9826296 -1.15858316 0 0 Z " fill="#FED612" transform="translate(380,91)"/>
<path d="M0 0 C3.80348966 1.72885894 5.44298744 3.16628909 7 7 C7.7823752 12.58839427 7.26305796 17.27419192 4 22 C0.95662562 24.62068349 -0.52076799 25 -4.5625 25 C-8.63467799 23.8153664 -9.76341976 22.52691499 -12 19 C-13.56428238 15.87143524 -13.28007086 13.47287869 -13 10 C-10.5113996 3.16250881 -7.90015429 -0.79001543 0 0 Z " fill="#FED512" transform="translate(443,91)"/>
<path d="" fill="#FFD400" transform="translate(0,0)"/>
<path d="M0 0 C2 1 2 1 2 1 Z " fill="#FFFF00" transform="translate(144,177)"/>
<path d="M0 0 C2 1 2 1 2 1 Z " fill="#FFFF00" transform="translate(151,176)"/>
<path d="M0 0 C2 1 2 1 2 1 Z " fill="#FFFF00" transform="translate(760,147)"/>
<path d="" fill="#FFFF00" transform="translate(0,0)"/>
<path d="" fill="#FFFF00" transform="translate(0,0)"/>
<path d="" fill="#FFFF00" transform="translate(0,0)"/>
<path d="" fill="#FFFF00" transform="translate(0,0)"/>
<path d="" fill="#FFFF00" transform="translate(0,0)"/>
<path d="" fill="#FFFF00" transform="translate(0,0)"/>
<path d="" fill="#FFFF00" transform="translate(0,0)"/>
<path d="" fill="#FFFF00" transform="translate(0,0)"/>
<path d="" fill="#FFFF00" transform="translate(0,0)"/>
<path d="" fill="#FFFF00" transform="translate(0,0)"/>
<path d="" fill="#FFFF00" transform="translate(0,0)"/>
<path d="" fill="#FFFF00" transform="translate(0,0)"/>
<path d="" fill="#FFFF00" transform="translate(0,0)"/>
<path d="" fill="#FFFF00" transform="translate(0,0)"/>
<path d="" fill="#FFFF00" transform="translate(0,0)"/>
<path d="" fill="#FFFF00" transform="translate(0,0)"/>
<path d="" fill="#FFFF00" transform="translate(0,0)"/>
<path d="" fill="#FFFF00" transform="translate(0,0)"/>
<path d="" fill="#FFAA00" transform="translate(0,0)"/>
<path d="" fill="#FFFF00" transform="translate(0,0)"/>
<path d="" fill="#FFFF00" transform="translate(0,0)"/>
<path d="" fill="#FFFF00" transform="translate(0,0)"/>
<path d="" fill="#FFFF00" transform="translate(0,0)"/>
<path d="" fill="#FFFF00" transform="translate(0,0)"/>
<path d="" fill="#FFFF00" transform="translate(0,0)"/>
<path d="" fill="#FFFF00" transform="translate(0,0)"/>
<path d="" fill="#FFFF00" transform="translate(0,0)"/>
<path d="" fill="#FFFF00" transform="translate(0,0)"/>
<path d="" fill="#FFFF00" transform="translate(0,0)"/>
<path d="" fill="#FFFF00" transform="translate(0,0)"/>
<path d="" fill="#FFFF00" transform="translate(0,0)"/>
<path d="" fill="#FFFF00" transform="translate(0,0)"/>
<path d="" fill="#FFAA00" transform="translate(0,0)"/>
<path d="" fill="#FFAA00" transform="translate(0,0)"/>
<path d="" fill="#FFFF00" transform="translate(0,0)"/>
<path d="" fill="#FFFF00" transform="translate(0,0)"/>
<path d="" fill="#FFAA00" transform="translate(0,0)"/>
<path d="" fill="#FFFF00" transform="translate(0,0)"/>
<path d="" fill="#FFFF00" transform="translate(0,0)"/>
<path d="" fill="#FFFF00" transform="translate(0,0)"/>
<path d="" fill="#FFCC00" transform="translate(0,0)"/>
<path d="" fill="#FFFF00" transform="translate(0,0)"/>
<path d="" fill="#FFFF00" transform="translate(0,0)"/>
<path d="" fill="#FFFF00" transform="translate(0,0)"/>
<path d="" fill="#FFFF00" transform="translate(0,0)"/>
</svg>
